<svg xmlns="http://www.w3.org/2000/svg" viewBox="0 0 640 480" role="img" aria-label="BRANDSIP branded bottle on a restaurant table">
<defs>
  <linearGradient id="rsbg" x1="0" y1="0" x2="0" y2="1"><stop offset="0" stop-color="#eef5fb"/><stop offset="1" stop-color="#dbe9f5"/></linearGradient>
  <linearGradient id="rstbl" x1="0" y1="0" x2="0" y2="1"><stop offset="0" stop-color="#f4f7fa"/><stop offset="1" stop-color="#dfe8f0"/></linearGradient>
  <radialGradient id="rswarm" cx="0.5" cy="0.3" r="0.8"><stop offset="0" stop-color="#8ec8ee" stop-opacity="0.25"/><stop offset="1" stop-color="#8ec8ee" stop-opacity="0"/></radialGradient>
</defs>
<rect width="640" height="480" fill="url(#rsbg)"/>
<rect width="640" height="480" fill="url(#rswarm)"/>
<!-- soft window light -->
<path d="M80 0 L240 0 L140 480 L0 480 Z" fill="#ffffff" opacity="0.18"/>
<!-- tabletop -->
<path d="M0 360 L640 360 L620 480 L20 480 Z" fill="url(#rstbl)"/>
<rect x="0" y="356" width="640" height="6" fill="#ffffff" opacity="0.6"/>
<!-- placemat -->
<rect x="180" y="300" width="280" height="150" rx="10" fill="#ffffff" opacity="0.7"/>
<rect x="200" y="318" width="240" height="114" rx="8" fill="none" stroke="#bcd6ec" stroke-width="1.5" stroke-dasharray="6 5"/>
<!-- glass / water -->
<path d="M420 260 l0 90 a12 12 0 0 0 12 12 l34 0 a12 12 0 0 0 12 -12 l0 -90 z" fill="#d9ecfa" opacity="0.8"/>
<path d="M422 262 c18 30 30 60 30 86 c0 -30 -10 -58 -22 -84 c-2 0 -5 14 -8 -2 z" fill="#ffffff" opacity="0.5"/>
<!-- napkin -->
<path d="M150 310 l40 0 c6 -16 18 -28 34 -30 c-4 4 6 16 6 30 l40 0 l0 40 l-120 0 z" fill="#ffffff" opacity="0.9"/>
<!-- fork & knife -->
<path d="M150 350 l0 -24 M148 350 l4 0 M150 340 l0 -10 c6 -6 8 -12 8 -18 M150 322 c-4 -4 -6 -10 -6 -16" stroke="#8fb8d9" stroke-width="3" stroke-linecap="round" fill="none"/>
<path d="M500 350 l0 -30 M500 350 l0 -8" stroke="#8fb8d9" stroke-width="3" stroke-linecap="round" fill="none"/>

<g transform="translate(300,120) scale(0.95)">
  <!-- shadow -->
  <ellipse cx="96" cy="640" rx="95" ry="20" fill="#0a2f4d" opacity="0.18"/>
  <!-- glass -->
  <path d="M46 250 c0 -52 18 -90 50 -90 c32 0 50 38 50 90 l0 330 c0 38 -20 64 -50 64 c-30 0 -50 -26 -50 -64 z" fill="#d9edfb"/>
  <path d="M46 250 c0 -52 18 -90 50 -90 c32 0 50 38 50 90 l0 16 c0 -50 -20 -88 -50 -88 c-30 0 -50 38 -50 88 z" fill="#ffffff" opacity="0.5"/>
  <path d="M56 262 c0 -42 12 -72 44 -80 c-30 8 -40 38 -40 80 l0 280 c0 22 6 36 20 46 c-18 -8 -24 -26 -24 -46 z" fill="#ffffff" opacity="0.42"/>
  <!-- water -->
  <path d="M50 500 l92 0 l0 130 c0 36 -18 58 -46 58 c-28 0 -46 -22 -46 -58 z" fill="#a9dffb" opacity="0.85"/>
  <ellipse cx="96" cy="498" rx="46" ry="6" fill="#ffffff" opacity="0.7"/>
  <!-- cap -->
  <rect x="72" y="158" width="48" height="34" rx="6" fill="#071f35"/>
  <rect x="72" y="182" width="48" height="10" rx="4" fill="#1f6fa8"/>
  <rect x="72" y="158" width="12" height="34" rx="6" fill="#ffffff" opacity="0.25"/>
  <!-- label -->
  <rect x="50" y="250" width="92" height="230" rx="9" fill="#0d3f66"/>
  <rect x="50" y="250" width="92" height="40" rx="9" fill="#071f35"/>
  <circle cx="96" cy="272" r="11" fill="#ffffff" opacity="0.92"/>
  <path d="M96 262 c8 6 10 11 10 14 a10 10 0 0 1 -20 0 c0 -3 2 -8 10 -14 z" fill="#1f8fd0"/>
  <rect x="50" y="250" width="13" height="230" rx="9" fill="#ffffff" opacity="0.09"/>
  <line x1="60" y1="292" x2="132" y2="292" stroke="#1f6fa8" stroke-width="1"/>
  <text font-family="Inter,Arial,sans-serif" font-weight="800" font-size="11" fill="#ffffff" x="96" y="415" text-anchor="middle">MAKE EVERY</text>
  <text font-family="Inter,Arial,sans-serif" font-weight="800" font-size="11" fill="#ffffff" x="96" y="430" text-anchor="middle">SIP A BRAND</text>
  <text font-family="Inter,Arial,sans-serif" font-weight="800" font-size="11" fill="#7cc4f5" x="96" y="446" text-anchor="middle">EXPERIENCE</text>
</g>

<!-- warm plate -->
<ellipse cx="220" cy="420" rx="60" ry="22" fill="#ffffff" opacity="0.85"/>
</svg>
